<svg width="129" height="24" viewBox="0 0 129 24" fill="none" xmlns="http://www.w3.org/2000/svg">
<path d="M5.328 23H0.464V0.664H11.056C12.08 0.664 13.008 0.834666 13.84 1.176C14.672 1.51733 15.376 2.008 15.952 2.648C16.5493 3.26667 17.008 4.01333 17.328 4.888C17.648 5.76267 17.808 6.73333 17.808 7.8C17.808 9.31467 17.4667 10.6373 16.784 11.768C16.1227 12.8987 15.1093 13.72 13.744 14.232L18.128 23H12.72L8.816 14.808H5.328V23ZM10.448 10.712C11.1733 10.712 11.7387 10.5307 12.144 10.168C12.5707 9.784 12.784 9.22933 12.784 8.504V7.096C12.784 6.37067 12.5707 5.82667 12.144 5.464C11.7387 5.08 11.1733 4.888 10.448 4.888H5.328V10.712H10.448ZM30.5573 4.984V23H25.6933V4.984H19.6453V0.664H36.6053V4.984H30.5573ZM46.7898 23.384C44.8271 23.384 43.1631 23.0533 41.7977 22.392C40.4324 21.7093 39.2698 20.8347 38.3098 19.768L41.5098 16.536C43.0244 18.2427 44.8911 19.096 47.1098 19.096C48.3044 19.096 49.1898 18.8507 49.7658 18.36C50.3418 17.8693 50.6298 17.2187 50.6298 16.408C50.6298 15.7893 50.4591 15.2773 50.1178 14.872C49.7764 14.4453 49.0831 14.1573 48.0378 14.008L45.8298 13.72C43.4618 13.4213 41.7231 12.7067 40.6138 11.576C39.5258 10.4453 38.9818 8.94133 38.9818 7.064C38.9818 6.06133 39.1738 5.144 39.5578 4.312C39.9418 3.48 40.4858 2.76533 41.1898 2.168C41.9151 1.57067 42.7898 1.112 43.8138 0.792C44.8591 0.450666 46.0431 0.279999 47.3658 0.279999C49.0511 0.279999 50.5338 0.546665 51.8138 1.08C53.0938 1.61333 54.1924 2.392 55.1098 3.416L51.8778 6.68C51.3444 6.06133 50.6938 5.56 49.9258 5.176C49.1791 4.77067 48.2298 4.568 47.0778 4.568C45.9898 4.568 45.1791 4.76 44.6458 5.144C44.1124 5.528 43.8458 6.06133 43.8458 6.744C43.8458 7.512 44.0484 8.06667 44.4538 8.408C44.8804 8.74933 45.5631 8.99467 46.5017 9.144L48.7098 9.496C51.0138 9.85867 52.7204 10.5733 53.8298 11.64C54.9391 12.6853 55.4938 14.1787 55.4938 16.12C55.4938 17.1867 55.3018 18.168 54.9178 19.064C54.5338 19.96 53.9684 20.728 53.2218 21.368C52.4964 22.008 51.5898 22.5093 50.5018 22.872C49.4138 23.2133 48.1764 23.384 46.7898 23.384ZM59.5265 23V0.664H70.0865C71.1318 0.664 72.0705 0.845332 72.9025 1.208C73.7345 1.54933 74.4385 2.02933 75.0145 2.648C75.6118 3.26667 76.0705 4.024 76.3905 4.92C76.7105 5.79467 76.8705 6.75467 76.8705 7.8C76.8705 8.86667 76.7105 9.83733 76.3905 10.712C76.0705 11.5867 75.6118 12.3333 75.0145 12.952C74.4385 13.5707 73.7345 14.0613 72.9025 14.424C72.0705 14.7653 71.1318 14.936 70.0865 14.936H64.3905V23H59.5265ZM64.3905 10.712H69.5105C70.2358 10.712 70.8012 10.5307 71.2065 10.168C71.6332 9.784 71.8465 9.22933 71.8465 8.504V7.096C71.8465 6.37067 71.6332 5.82667 71.2065 5.464C70.8012 5.08 70.2358 4.888 69.5105 4.888H64.3905V10.712Z" fill="#FEFEFE"/>
<path d="M79.835 23.352C78.875 23.352 78.1603 23.1173 77.691 22.648C77.243 22.1573 77.019 21.5387 77.019 20.792V20.152C77.019 19.4053 77.243 18.7973 77.691 18.328C78.1603 17.8373 78.875 17.592 79.835 17.592C80.795 17.592 81.499 17.8373 81.947 18.328C82.4163 18.7973 82.651 19.4053 82.651 20.152V20.792C82.651 21.5387 82.4163 22.1573 81.947 22.648C81.499 23.1173 80.795 23.352 79.835 23.352ZM103.949 8.344H103.853L102.221 11.608L97.8693 19.512L93.6133 11.64L91.9173 8.12H91.8213V23H87.2453V0.664H92.3973L97.8693 11.128H97.9333L103.341 0.664H108.525V23H103.949V8.344ZM113.464 23V0.664H128.664V4.984H118.328V9.56H127.192V13.848H118.328V18.68H128.664V23H113.464Z" fill="#F93822"/>
</svg>
